<svg version="1" xmlns="http://www.w3.org/2000/svg" width="1708" height="1708" viewBox="0 0 1281.000000 1281.000000"><path d="M627.2 178.9c-1.9 1.1 0 24.8 3.3 41.1 5.5 28.1 20.1 59.3 39.1 84.1 6.9 9 24 26.3 33.1 33.5 15.6 12.3 25.5 18 56.8 32.9 12.5 6 27.8 14.7 38.1 21.6 6.7 4.4 22.7 16.2 24.4 17.9.3.3 3.9 3.4 8 6.9 14 12 31.6 30.8 42.3 45.1 3.1 4.1 6.1 8 6.6 8.7 2.3 2.7 14.1 21.5 18.7 29.8 15.4 27.8 26.9 59.1 33 90 1.1 5.9 1.4 7.4 1.9 11.5.3 2.5.8 5.6 1 7 1.6 9.3 2.8 25.9 2.8 40.5 0 11-1 32.2-1.8 36-.2 1.1-.6 4.2-.9 7-2.1 19.2-11.6 55.4-19.2 73-1 2.2-1.8 4.4-2 5-.4 2.1-10.9 23.4-15.2 31-5.1 9-17.3 27.8-22.1 34.2l-3.2 4.2 6.3 4.3c32.7 22.3 75.3 27.2 112.3 13 32.4-12.4 56.9-36.7 70.9-70.2 4.1-10 14.2-48 16.2-61.5.2-1.1.5-2.9.7-4 .5-2.4 1.5-8.6 2.2-13.5.2-1.9.9-6.9 1.4-11 .6-4.1 1.3-10.9 1.7-15 .3-4.1.8-9.1 1-11 .5-5 .5-55.9-.1-59.5-.2-1.7-.7-6.8-1-11.5-.3-4.7-.7-9.6-1-11-.3-1.4-.7-4.8-1.1-7.5-.3-2.8-.8-5.7-.9-6.7-.2-.9-.6-3.8-1-6.5-1-7.1-1.2-8-3.4-18.3-1.1-5.2-2.3-10.6-2.5-12-2-10.3-10.7-39.3-16.4-54.5-8.3-22.3-23-53.4-35.1-74-5.2-8.9-26.8-41.5-28.1-42.5-.3-.3-2.6-3.2-5.1-6.5-16.2-22-45.9-53.1-69.4-72.5-4.9-4.1-9.2-7.7-9.5-8-2-2-18.7-14.2-29-21.1-20.9-14.1-39.9-24.9-62.5-35.5-13.6-6.4-38.9-16.7-44-18-1.7-.4-3.4-1-4-1.4-1.2-.9-33.1-10.4-38.5-11.5-.8-.2-6.4-1.4-12.5-2.8-10.2-2.3-30.8-6-40-7.1-4.4-.6-14.2-1.7-18.9-2.2-1.7-.2-9.2-.6-16.6-.9-7.4-.4-14-.8-14.6-1-.6-.2-1.6 0-2.2.4zM426.8 288.5c-.2.1-3.2.5-6.8.8-11.6 1.1-28.2 6.6-38.5 12.9-18.5 11.3-45.1 33.4-66.7 55.3l-9.9 10 3.8 3.4c17.1 15.3 48.9 28.6 73.5 30.8 12.7 1.2 33.8.5 39.8-1.2.8-.2 2.6-.6 4-.9 12.8-2.2 27.8-8.1 46.1-18.3 6.8-3.8 16.2-8.7 20.9-11 9.1-4.3 31.3-13.3 33-13.3 1.3 0 1.4.3-1.4-6.6-12.8-31.2-41.4-54.4-74.8-60.4-5.4-1-22.3-2.1-23-1.5zM284 523.7c-45.9 7.8-80 40.8-88.5 85.7-2.2 11.2-2.9 24.5-2.9 49.1 0 32.8 2.5 57.4 8.5 86.5 1.1 5.2 2.2 10.6 2.5 12 3.8 18.6 15.5 54.1 24.8 75.2 5.4 12.2 4.2 11.8 15.6 5 20.9-12.6 40.6-32 52.7-52 2.7-4.3 11.5-22.2 11.7-23.7.1-.6.4-1.5.7-2 1-1.6 5-14.1 5.5-17.1.3-1.6.7-3.7 1-4.7 3-10 3.9-41.7 1.7-60.2-1-8.9-1-46.3.1-57.5.8-8.9 4-29 5.6-35 .5-1.9 1.1-4.8 1.4-6.4 1-5.9 8-28.4 11.7-37.9l3.8-9.8-2.2-.8c-13.6-5.2-23.2-6.9-38.4-6.9-7 0-13.9.2-15.3.5zM404.8 869.9c-.1.5-2.1 2.9-4.3 5.3-12 12.9-23.5 36.6-25.9 53.1-.4 2.7-.9 5.9-1.2 7-.6 3.2-.6 21.4 0 27.2 1.3 12.1 6.6 28.9 12.7 40.3 12 22.1 30.6 38.9 56.4 51.1 42.8 20.3 88.1 33.4 137 39.6 2.8.3 6.4.8 8 1 15.1 1.9 61.4 2.7 79.1 1.2 24.5-1.9 45.8-5.2 73.6-11.2.9-.2 5.1-1.3 9.3-2.5 4.2-1.2 8.4-2.3 9.3-2.5 2.7-.5 27.8-8.9 36.7-12.3 21.9-8.2 47.5-20.9 70.8-35l10.7-6.5-2.7-3.6c-18.7-25.3-40.5-43.7-66.1-55.8-9-4.3-28.2-11.6-28.2-10.8 0 .3-1.2 0-2.6-.5-3.1-1.2-14.8-3.7-22.4-4.7-10.8-1.5-49-.7-51.9 1.2-.7.4-32.8 6.3-38.1 6.9-20 2.6-61.5 2.6-77 .1-10-1.6-11.3-1.8-18.5-3-7.7-1.2-28.6-6.5-38.3-9.6-44.1-14.4-84-38-117.7-69.9-6.8-6.4-8.2-7.4-8.7-6.1z"/></svg>