<?xml version="1.0" encoding="UTF-8" standalone="no"?><!DOCTYPE svg PUBLIC "-//W3C//DTD SVG 1.1//EN" "http://www.w3.org/Graphics/SVG/1.1/DTD/svg11.dtd"><svg width="100%" height="100%" viewBox="0 0 1280 1281" version="1.1" xmlns="http://www.w3.org/2000/svg" xmlns:xlink="http://www.w3.org/1999/xlink" xml:space="preserve" xmlns:serif="http://www.serif.com/" style="fill-rule:evenodd;clip-rule:evenodd;stroke-linejoin:round;stroke-miterlimit:2;"><rect id="v2-aligned-white" x="0" y="0.223" width="1280" height="1280" style="fill:none;"/><g id="baked"><path d="M370.306,883.403c68.103,68.67 163.647,109.698 267.811,105.665c22.359,-0.866 44.162,-3.771 65.237,-8.529c80.532,-18.25 163.98,15.036 209.843,83.703c0.004,-0.003 0.004,-0.003 0.004,-0.003c-26.294,17.011 -54.097,31.654 -83.039,43.58c-129.672,53.429 -281.024,51.162 -408.828,-6.999c-5.858,-2.665 -11.663,-5.445 -17.413,-8.335c-37.56,-18.747 -63.782,-54.447 -70.436,-95.895c-6.653,-41.448 7.078,-83.562 36.884,-113.123c-0.063,-0.064 -0.063,-0.064 -0.063,-0.064Zm-75.982,-389.818c-19.567,46.615 -29.509,98.126 -27.426,151.937c0.371,9.584 1.117,19.067 2.223,28.433c8.881,74.62 -30.326,146.714 -97.789,179.816c0.007,0.015 0.007,0.015 0.007,0.015c-32.551,-69.824 -49.054,-147.097 -47.299,-224.174c0.268,-11.766 0.964,-23.518 2.08,-35.228c3.691,-38.501 25.458,-72.957 58.642,-92.827c33.183,-19.871 73.834,-22.79 109.516,-7.865c0.045,-0.107 0.046,-0.107 0.046,-0.107Zm215.678,-200.874c-23.653,7.972 -46.172,18.344 -67.279,30.814c-60.201,35.584 -136.459,28.417 -188.975,-17.761c-0.02,0.022 -0.02,0.022 -0.02,0.022c24.234,-26.413 51.387,-50.167 80.763,-70.773c29.789,-20.837 67.654,-26.419 102.188,-15.064c34.534,11.354 61.699,38.317 73.311,72.765c0.012,-0.003 0.012,-0.003 0.012,-0.003Z" style="fill:#fff;"/><path d="M624.235,87.623l0.571,0.012c112.029,2.118 220.94,39.116 309.612,104.031c101.044,73.97 175.209,184.153 204.649,306.109c9.695,40.164 14.525,81.428 14.591,122.698c-0.077,55.708 -8.69,109.42 -24.591,159.886c-13.897,44.139 -48.481,78.706 -92.628,92.58c-44.147,13.873 -92.287,5.304 -128.935,-22.953c0,0.001 0,0.001 0,0.001c49.419,-64.03 77.529,-145.073 74.159,-232.137c-5.499,-142.028 -93.281,-261.602 -215.637,-314.568c-86.061,-37.156 -141.792,-121.921 -141.792,-215.659l-0.001,0l0.002,0Z" style="fill:#fff;"/></g></svg>